<mxfile host="app.diagrams.net" agent="Mozilla/5.0 (Windows NT 10.0; Win64; x64) AppleWebKit/537.36 (KHTML, like Gecko) Chrome/129.0.0.0 Safari/537.36" version="24.7.17">
  <diagram name="Página-1" id="UstaWLf259MvMFX-0HnH">
    <mxGraphModel dx="875" dy="464" grid="1" gridSize="10" guides="1" tooltips="1" connect="1" arrows="1" fold="1" page="1" pageScale="1" pageWidth="827" pageHeight="1169" math="0" shadow="0">
      <root>
        <mxCell id="0" />
        <mxCell id="1" parent="0" />
        <mxCell id="e3MzRoi6sOed7NqyFz_Z-52" style="edgeStyle=orthogonalEdgeStyle;rounded=0;orthogonalLoop=1;jettySize=auto;html=1;" edge="1" parent="1" source="e3MzRoi6sOed7NqyFz_Z-1" target="e3MzRoi6sOed7NqyFz_Z-6">
          <mxGeometry relative="1" as="geometry">
            <Array as="points">
              <mxPoint x="50" y="160" />
              <mxPoint x="50" y="160" />
            </Array>
          </mxGeometry>
        </mxCell>
        <mxCell id="e3MzRoi6sOed7NqyFz_Z-1" value="Actor" style="shape=umlActor;verticalLabelPosition=bottom;verticalAlign=top;html=1;outlineConnect=0;" vertex="1" parent="1">
          <mxGeometry x="40" y="180" width="30" height="60" as="geometry" />
        </mxCell>
        <mxCell id="e3MzRoi6sOed7NqyFz_Z-6" value="Cadastrar" style="ellipse;whiteSpace=wrap;html=1;" vertex="1" parent="1">
          <mxGeometry x="30" y="10" width="120" height="80" as="geometry" />
        </mxCell>
        <mxCell id="e3MzRoi6sOed7NqyFz_Z-7" value="Logar" style="ellipse;whiteSpace=wrap;html=1;" vertex="1" parent="1">
          <mxGeometry x="430" y="610" width="120" height="80" as="geometry" />
        </mxCell>
        <mxCell id="e3MzRoi6sOed7NqyFz_Z-55" style="edgeStyle=orthogonalEdgeStyle;rounded=0;orthogonalLoop=1;jettySize=auto;html=1;" edge="1" parent="1" source="e3MzRoi6sOed7NqyFz_Z-12" target="e3MzRoi6sOed7NqyFz_Z-1">
          <mxGeometry relative="1" as="geometry" />
        </mxCell>
        <mxCell id="e3MzRoi6sOed7NqyFz_Z-62" style="edgeStyle=orthogonalEdgeStyle;rounded=0;orthogonalLoop=1;jettySize=auto;html=1;dashed=1;" edge="1" parent="1" source="e3MzRoi6sOed7NqyFz_Z-12" target="e3MzRoi6sOed7NqyFz_Z-15">
          <mxGeometry relative="1" as="geometry">
            <Array as="points">
              <mxPoint x="430" y="140" />
              <mxPoint x="430" y="140" />
            </Array>
          </mxGeometry>
        </mxCell>
        <mxCell id="e3MzRoi6sOed7NqyFz_Z-63" style="edgeStyle=orthogonalEdgeStyle;rounded=0;orthogonalLoop=1;jettySize=auto;html=1;dashed=1;" edge="1" parent="1" source="e3MzRoi6sOed7NqyFz_Z-12" target="e3MzRoi6sOed7NqyFz_Z-16">
          <mxGeometry relative="1" as="geometry">
            <Array as="points">
              <mxPoint x="310" y="180" />
              <mxPoint x="480" y="180" />
              <mxPoint x="480" y="280" />
            </Array>
          </mxGeometry>
        </mxCell>
        <mxCell id="e3MzRoi6sOed7NqyFz_Z-64" style="edgeStyle=orthogonalEdgeStyle;rounded=0;orthogonalLoop=1;jettySize=auto;html=1;dashed=1;" edge="1" parent="1" source="e3MzRoi6sOed7NqyFz_Z-12" target="e3MzRoi6sOed7NqyFz_Z-20">
          <mxGeometry relative="1" as="geometry">
            <Array as="points">
              <mxPoint x="290" y="220" />
              <mxPoint x="468" y="220" />
            </Array>
          </mxGeometry>
        </mxCell>
        <mxCell id="e3MzRoi6sOed7NqyFz_Z-65" style="edgeStyle=orthogonalEdgeStyle;rounded=0;orthogonalLoop=1;jettySize=auto;html=1;entryX=0;entryY=0.5;entryDx=0;entryDy=0;dashed=1;" edge="1" parent="1" source="e3MzRoi6sOed7NqyFz_Z-12" target="e3MzRoi6sOed7NqyFz_Z-14">
          <mxGeometry relative="1" as="geometry">
            <Array as="points">
              <mxPoint x="290" y="50" />
            </Array>
          </mxGeometry>
        </mxCell>
        <mxCell id="e3MzRoi6sOed7NqyFz_Z-12" value="RF04 - Possuir guia de benefícios e direitos" style="ellipse;whiteSpace=wrap;html=1;" vertex="1" parent="1">
          <mxGeometry x="260" y="90" width="120" height="80" as="geometry" />
        </mxCell>
        <mxCell id="e3MzRoi6sOed7NqyFz_Z-45" style="edgeStyle=orthogonalEdgeStyle;rounded=0;orthogonalLoop=1;jettySize=auto;html=1;" edge="1" parent="1" source="e3MzRoi6sOed7NqyFz_Z-14" target="e3MzRoi6sOed7NqyFz_Z-37">
          <mxGeometry relative="1" as="geometry" />
        </mxCell>
        <mxCell id="e3MzRoi6sOed7NqyFz_Z-14" value="RF002 - Possuir seção com detalhes sobre os direitos legais&amp;nbsp;" style="ellipse;whiteSpace=wrap;html=1;" vertex="1" parent="1">
          <mxGeometry x="355" y="10" width="150" height="80" as="geometry" />
        </mxCell>
        <mxCell id="e3MzRoi6sOed7NqyFz_Z-46" style="edgeStyle=orthogonalEdgeStyle;rounded=0;orthogonalLoop=1;jettySize=auto;html=1;" edge="1" parent="1" source="e3MzRoi6sOed7NqyFz_Z-15" target="e3MzRoi6sOed7NqyFz_Z-37">
          <mxGeometry relative="1" as="geometry" />
        </mxCell>
        <mxCell id="e3MzRoi6sOed7NqyFz_Z-15" value="RF003 - Possuir informações sobre benefícios, incluindo a Lei Brasileira de Inclusão e o Benefício de Prestação Continuada (BPC)" style="ellipse;whiteSpace=wrap;html=1;" vertex="1" parent="1">
          <mxGeometry x="460" y="80" width="265" height="130" as="geometry" />
        </mxCell>
        <mxCell id="e3MzRoi6sOed7NqyFz_Z-43" style="edgeStyle=orthogonalEdgeStyle;rounded=0;orthogonalLoop=1;jettySize=auto;html=1;" edge="1" parent="1" source="e3MzRoi6sOed7NqyFz_Z-16" target="e3MzRoi6sOed7NqyFz_Z-37">
          <mxGeometry relative="1" as="geometry">
            <Array as="points">
              <mxPoint x="615" y="220" />
              <mxPoint x="760" y="220" />
              <mxPoint x="760" y="150" />
            </Array>
          </mxGeometry>
        </mxCell>
        <mxCell id="e3MzRoi6sOed7NqyFz_Z-16" value="RF05 - Mostrar lista de documentos necessários para cada tipo de benefício" style="ellipse;whiteSpace=wrap;html=1;" vertex="1" parent="1">
          <mxGeometry x="530" y="230" width="170" height="100" as="geometry" />
        </mxCell>
        <mxCell id="e3MzRoi6sOed7NqyFz_Z-56" style="edgeStyle=orthogonalEdgeStyle;rounded=0;orthogonalLoop=1;jettySize=auto;html=1;" edge="1" parent="1" source="e3MzRoi6sOed7NqyFz_Z-17" target="e3MzRoi6sOed7NqyFz_Z-1">
          <mxGeometry relative="1" as="geometry">
            <Array as="points">
              <mxPoint x="70" y="290" />
            </Array>
          </mxGeometry>
        </mxCell>
        <mxCell id="e3MzRoi6sOed7NqyFz_Z-17" value="RF010 - Possuir uma seção de FAQ e base de conhecimento com perguntas frequentes.&amp;nbsp;" style="ellipse;whiteSpace=wrap;html=1;" vertex="1" parent="1">
          <mxGeometry x="150" y="240" width="275" height="100" as="geometry" />
        </mxCell>
        <mxCell id="e3MzRoi6sOed7NqyFz_Z-47" style="edgeStyle=orthogonalEdgeStyle;rounded=0;orthogonalLoop=1;jettySize=auto;html=1;" edge="1" parent="1" source="e3MzRoi6sOed7NqyFz_Z-18" target="e3MzRoi6sOed7NqyFz_Z-1">
          <mxGeometry relative="1" as="geometry" />
        </mxCell>
        <mxCell id="e3MzRoi6sOed7NqyFz_Z-18" value="RF011 - Permitir suporte para leitores de tela e opções de contraste para deficientes visuais" style="ellipse;whiteSpace=wrap;html=1;" vertex="1" parent="1">
          <mxGeometry x="110" y="420" width="240" height="100" as="geometry" />
        </mxCell>
        <mxCell id="e3MzRoi6sOed7NqyFz_Z-19" value="RF014 - Criar uma sessão de pergunta no fórum&amp;nbsp;" style="ellipse;whiteSpace=wrap;html=1;" vertex="1" parent="1">
          <mxGeometry x="250" y="690" width="310" height="120" as="geometry" />
        </mxCell>
        <mxCell id="e3MzRoi6sOed7NqyFz_Z-44" style="edgeStyle=orthogonalEdgeStyle;rounded=0;orthogonalLoop=1;jettySize=auto;html=1;" edge="1" parent="1" source="e3MzRoi6sOed7NqyFz_Z-20" target="e3MzRoi6sOed7NqyFz_Z-37">
          <mxGeometry relative="1" as="geometry">
            <Array as="points">
              <mxPoint x="795" y="340" />
            </Array>
          </mxGeometry>
        </mxCell>
        <mxCell id="e3MzRoi6sOed7NqyFz_Z-20" value="RF016 - Mostrar notícias relacionadas ao TEA." style="ellipse;whiteSpace=wrap;html=1;" vertex="1" parent="1">
          <mxGeometry x="402.5" y="320" width="130" height="90" as="geometry" />
        </mxCell>
        <mxCell id="e3MzRoi6sOed7NqyFz_Z-72" style="edgeStyle=orthogonalEdgeStyle;rounded=0;orthogonalLoop=1;jettySize=auto;html=1;" edge="1" parent="1" source="e3MzRoi6sOed7NqyFz_Z-21" target="e3MzRoi6sOed7NqyFz_Z-33">
          <mxGeometry relative="1" as="geometry">
            <Array as="points">
              <mxPoint x="680" y="539" />
              <mxPoint x="680" y="680" />
            </Array>
          </mxGeometry>
        </mxCell>
        <mxCell id="e3MzRoi6sOed7NqyFz_Z-21" value="RF017 - Mostrar informações do usuário por meio de um perfil" style="ellipse;whiteSpace=wrap;html=1;" vertex="1" parent="1">
          <mxGeometry x="460" y="494" width="185" height="90" as="geometry" />
        </mxCell>
        <mxCell id="e3MzRoi6sOed7NqyFz_Z-22" value="RF018 - Editar de dados" style="ellipse;whiteSpace=wrap;html=1;" vertex="1" parent="1">
          <mxGeometry x="610" y="830" width="160" height="70" as="geometry" />
        </mxCell>
        <mxCell id="e3MzRoi6sOed7NqyFz_Z-71" style="edgeStyle=orthogonalEdgeStyle;rounded=0;orthogonalLoop=1;jettySize=auto;html=1;" edge="1" parent="1" source="e3MzRoi6sOed7NqyFz_Z-23" target="e3MzRoi6sOed7NqyFz_Z-7">
          <mxGeometry relative="1" as="geometry" />
        </mxCell>
        <mxCell id="e3MzRoi6sOed7NqyFz_Z-23" value="RF019 - Manter logado" style="ellipse;whiteSpace=wrap;html=1;" vertex="1" parent="1">
          <mxGeometry x="235" y="560" width="175" height="90" as="geometry" />
        </mxCell>
        <mxCell id="e3MzRoi6sOed7NqyFz_Z-24" value="RF020 - Sair da sua conta no dispositivo" style="ellipse;whiteSpace=wrap;html=1;" vertex="1" parent="1">
          <mxGeometry x="355" y="820" width="150" height="90" as="geometry" />
        </mxCell>
        <mxCell id="e3MzRoi6sOed7NqyFz_Z-67" style="edgeStyle=orthogonalEdgeStyle;rounded=0;orthogonalLoop=1;jettySize=auto;html=1;" edge="1" parent="1" source="e3MzRoi6sOed7NqyFz_Z-25" target="e3MzRoi6sOed7NqyFz_Z-33">
          <mxGeometry relative="1" as="geometry" />
        </mxCell>
        <mxCell id="e3MzRoi6sOed7NqyFz_Z-25" value="RF021 - Permitir voltar à interface anterior.&amp;nbsp;" style="ellipse;whiteSpace=wrap;html=1;" vertex="1" parent="1">
          <mxGeometry x="630" y="450" width="170" height="80" as="geometry" />
        </mxCell>
        <mxCell id="e3MzRoi6sOed7NqyFz_Z-69" style="edgeStyle=orthogonalEdgeStyle;rounded=0;orthogonalLoop=1;jettySize=auto;html=1;" edge="1" parent="1" source="e3MzRoi6sOed7NqyFz_Z-33" target="e3MzRoi6sOed7NqyFz_Z-7">
          <mxGeometry relative="1" as="geometry" />
        </mxCell>
        <mxCell id="e3MzRoi6sOed7NqyFz_Z-70" style="edgeStyle=orthogonalEdgeStyle;rounded=0;orthogonalLoop=1;jettySize=auto;html=1;" edge="1" parent="1" source="e3MzRoi6sOed7NqyFz_Z-33" target="e3MzRoi6sOed7NqyFz_Z-24">
          <mxGeometry relative="1" as="geometry">
            <Array as="points">
              <mxPoint x="760" y="700" />
              <mxPoint x="760" y="760" />
              <mxPoint x="580" y="760" />
              <mxPoint x="580" y="825" />
            </Array>
          </mxGeometry>
        </mxCell>
        <mxCell id="e3MzRoi6sOed7NqyFz_Z-73" style="edgeStyle=orthogonalEdgeStyle;rounded=0;orthogonalLoop=1;jettySize=auto;html=1;" edge="1" parent="1" source="e3MzRoi6sOed7NqyFz_Z-33" target="e3MzRoi6sOed7NqyFz_Z-19">
          <mxGeometry relative="1" as="geometry">
            <Array as="points">
              <mxPoint x="570" y="730" />
              <mxPoint x="570" y="730" />
            </Array>
          </mxGeometry>
        </mxCell>
        <mxCell id="e3MzRoi6sOed7NqyFz_Z-74" style="edgeStyle=orthogonalEdgeStyle;rounded=0;orthogonalLoop=1;jettySize=auto;html=1;" edge="1" parent="1" source="e3MzRoi6sOed7NqyFz_Z-33" target="e3MzRoi6sOed7NqyFz_Z-22">
          <mxGeometry relative="1" as="geometry">
            <Array as="points">
              <mxPoint x="790" y="680" />
              <mxPoint x="790" y="790" />
              <mxPoint x="690" y="790" />
            </Array>
          </mxGeometry>
        </mxCell>
        <mxCell id="e3MzRoi6sOed7NqyFz_Z-33" value="Actor" style="shape=umlActor;verticalLabelPosition=bottom;verticalAlign=top;html=1;outlineConnect=0;" vertex="1" parent="1">
          <mxGeometry x="725" y="670" width="30" height="60" as="geometry" />
        </mxCell>
        <mxCell id="e3MzRoi6sOed7NqyFz_Z-37" value="Actor" style="shape=umlActor;verticalLabelPosition=bottom;verticalAlign=top;html=1;outlineConnect=0;" vertex="1" parent="1">
          <mxGeometry x="780" y="100" width="30" height="60" as="geometry" />
        </mxCell>
      </root>
    </mxGraphModel>
  </diagram>
</mxfile>
